<svg xmlns="http://www.w3.org/2000/svg" width="1079.924" height="180.69" viewBox="0 0 1793 300">
  <defs>
    <style>
      .cls-1 {
        fill: #e1b545;
        fill-rule: evenodd;
      }
    </style>
  </defs>
  <path id="Forma_1" data-name="Forma 1" class="cls-1" d="M252.845,288.531l-0.115.114a14.828,14.828,0,0,1-20.939,0L196.273,253.21a115.678,115.678,0,0,1-68.628,22.266c-64.034-.117-115.813-52-115.652-115.881A115.619,115.619,0,0,1,66.355,61.826a83.478,83.478,0,1,0,123.7.251,115.5,115.5,0,0,1,27.823,170.671l34.972,34.893A14.747,14.747,0,0,1,252.845,288.531ZM165.294,50.457c-9.969-3.026-21.783-4.709-26.946,1.866-9.71,11.986-10.382,59.458-10.4,65.3-0.037-5.839-.664-53.322-10.345-65.312-5.151-6.583-17.005-4.9-26.991-1.866a79.222,79.222,0,0,0-18.274,7.922,159.11,159.11,0,0,1,18.281-9.5c9.988-4.6,21.83-8.217,26.97-11.7C127.6,30.3,127.927,9.541,127.933,8.072c0.009,1.471.372,22.233,10.4,29.1,5.144,3.476,16.97,7.093,26.944,11.7a158.894,158.894,0,0,1,18.252,9.5A79.137,79.137,0,0,0,165.294,50.457Zm-37.348,67.758c0,0.028,0-.18,0-0.591C127.947,118.026,127.946,118.231,127.946,118.215ZM127.933,7.989v0ZM1723.47,261.566a84.181,84.181,0,1,0-124.7-.024,116.412,116.412,0,0,1-54.49-98.6c0-64.384,52.32-116.578,116.86-116.578s116.87,52.193,116.87,116.578A116.426,116.426,0,0,1,1723.47,261.566Zm-338.34,15.352a84.6,84.6,0,0,0,55.63-24.68c33.04-32.939,33.17-86.215.29-119a83.581,83.581,0,0,0-25.84-17.568c-18.37-6.867-42.8-10.046-64.6,6.985-45.74,35.739-26.31,156.431-26.31,156.431s-26.71-49.843-29.51-103.32A116.927,116.927,0,1,1,1385.13,276.918ZM1161.15,272.3c-64.54,0-116.86-52.194-116.86-116.579A116.417,116.417,0,0,1,1098.82,57.1a84.181,84.181,0,1,0,124.7.025,116.419,116.419,0,0,1,54.5,98.6C1278.02,220.105,1225.69,272.3,1161.15,272.3ZM828.336,238.737A116.611,116.611,0,0,1,936.813,42.649a84.609,84.609,0,0,0-55.634,24.682c-33.03,32.942-33.16,86.223-.288,119s86.294,32.655,119.329-.287a84.177,84.177,0,0,0,24.74-55.452A116.825,116.825,0,0,1,828.336,238.737Zm-83-38.021a84.18,84.18,0,1,0-146.54,56.676,116.429,116.429,0,0,1-54.5-98.6c0-64.384,52.323-116.576,116.865-116.576S778.027,94.408,778.027,158.792a116.426,116.426,0,0,1-54.535,98.624A84.17,84.17,0,0,0,745.333,200.716ZM443.568,74.832c-46.734,0-84.618,37.6-84.618,83.976s37.884,83.976,84.618,83.976a84.672,84.672,0,0,0,56.839-21.766,116.906,116.906,0,0,1-98.886,54.364c-64.572,0-116.919-52.2-116.919-116.583S336.949,42.216,401.521,42.216a116.906,116.906,0,0,1,98.911,54.4A84.666,84.666,0,0,0,443.568,74.832ZM650.3,178.3c10-6.313,9.984-28.649,9.984-28.649S660.3,172,670.322,178.3c10,6.292,45.585,6.35,45.585,6.35s-35.548-.046-45.585,6.246c-9.471,5.937-10.027,26.317-10.039,28.548-0.028-2.229-.541-22.616-9.983-28.548-10.013-6.291-45.639-6.246-45.639-6.246S640.307,184.608,650.3,178.3Zm9.983,41.144c0,0.131,0,.2,0,0.2S660.282,219.578,660.283,219.442Zm990-36.994c10-6.312,9.98-28.649,9.98-28.649s0.02,22.346,10.04,28.649c10,6.293,45.59,6.349,45.59,6.349s-35.55-.046-45.59,6.246c-9.47,5.938-10.03,26.319-10.04,28.551-0.03-2.232-.54-22.618-9.98-28.551-10.01-6.29-45.64-6.246-45.64-6.246S1640.28,188.756,1650.28,182.448Zm9.98,41.146v0Z"/>
</svg>
